<svg width="96" height="96" viewBox="0 0 96 96" fill="none" xmlns="http://www.w3.org/2000/svg" role="img" aria-label="Import and Purchase">
  <defs>
    <linearGradient id="ipGrad" x1="14" y1="10" x2="82" y2="86" gradientUnits="userSpaceOnUse">
      <stop stop-color="#4f8bff"></stop>
      <stop offset="1" stop-color="#1e5be6"></stop>
    </linearGradient>
  </defs>
  <rect x="6" y="6" width="84" height="84" rx="22" fill="url(#ipGrad)"></rect>
  <rect x="6" y="6" width="84" height="84" rx="22" fill="#ffffff" opacity="0.04"></rect>
  
  <path d="M48 24v22m0 0 9-9m-9 9-9-9" stroke="#ffffff" stroke-width="5" stroke-linecap="round" stroke-linejoin="round"></path>
  
  <path d="M30 50v8a4 4 0 0 0 4 4h28a4 4 0 0 0 4-4v-8" stroke="#ffffff" stroke-width="5" stroke-linecap="round" stroke-linejoin="round"></path>
  
  <path d="M58 64.5h9.5a3 3 0 0 1 2.1.9l6.4 6.4a3 3 0 0 1 0 4.2l-7 7a3 3 0 0 1-4.2 0l-6.4-6.4a3 3 0 0 1-.9-2.1V67.5a3 3 0 0 1 3-3Z" fill="#bcd3ff"></path>
  <circle cx="63.5" cy="70" r="2.1" fill="#1e5be6"></circle>
</svg>